# xmcd
#
# Track frame offsets:
#	150
#	3915
#	26608
#	45651
#	83273
#	100392
#	117321
#	153391
#	168776
#	196960
#	224292
#	258399
#
# Disc length: 3854 seconds
#
# Revision: 1
# Processed by: cddbd v1.5.2PL0 Copyright (c) Steve Scherf et al.
# Submitted via: audiograbber 1.83.01
#
DISCID=8d0f0c0c
DTITLE=Grateful Dead - 82-10-09 Frost Amphitheatre, Palo Alto CA
DYEAR=1900
DGENRE=
TTITLE0=Tuning
TTITLE1=Alabama Getaway
TTITLE2=Greatest Story Ever Told
TTITLE3=They Love Each Other
TTITLE4=On The Road Again
TTITLE5=BIODTL
TTITLE6=West LA Fadeaway
TTITLE7=Me and My Uncle
TTITLE8=Big River
TTITLE9=Dupree's Diamond Blues
TTITLE10=The Music Never Stopped
TTITLE11=Deal
EXTD=
EXTT0=
EXTT1=
EXTT2=
EXTT3=
EXTT4=
EXTT5=
EXTT6=
EXTT7=
EXTT8=
EXTT9=
EXTT10=
EXTT11=
PLAYORDER=
